<?xml version="1.0" encoding="utf-8"?>
<!-- Generator: Adobe Illustrator 24.2.3, SVG Export Plug-In . SVG Version: 6.00 Build 0)  -->
<svg version="1.1" xmlns="http://www.w3.org/2000/svg" xmlns:xlink="http://www.w3.org/1999/xlink" x="0px" y="0px"
	 viewBox="0 0 512 512" style="enable-background:new 0 0 512 512;" xml:space="preserve">
<path d="M424,64h-88V48c0-26.51-21.49-48-48-48h-64c-26.51,0-48,21.49-48,48v16H88c-22.09,0-40,17.91-40,40v32c0,8.84,7.16,16,16,16
	h384c8.84,0,16-7.16,16-16v-32C464,81.91,446.09,64,424,64z M208,48c0-8.82,7.18-16,16-16h64c8.82,0,16,7.18,16,16v16h-96V48z"/>
<path d="M78.36,184c-2.86,0-5.13,2.39-4.99,5.24l13.2,277.04c1.22,25.64,22.28,45.72,47.94,45.72h242.98
	c25.66,0,46.72-20.08,47.94-45.72l13.2-277.04c0.14-2.85-2.14-5.24-4.99-5.24H78.36z M320,224c0-8.84,7.16-16,16-16s16,7.16,16,16
	v208c0,8.84-7.16,16-16,16s-16-7.16-16-16V224z M240,224c0-8.84,7.16-16,16-16s16,7.16,16,16v208c0,8.84-7.16,16-16,16
	s-16-7.16-16-16V224z M160,224c0-8.84,7.16-16,16-16s16,7.16,16,16v208c0,8.84-7.16,16-16,16s-16-7.16-16-16V224z"/>
</svg>
