<?xml version="1.0" encoding="utf-8"?>
<!-- Generator: Adobe Illustrator 23.0.1, SVG Export Plug-In . SVG Version: 6.00 Build 0)  -->
<svg version="1.1" id="Layer_1" xmlns="http://www.w3.org/2000/svg" xmlns:xlink="http://www.w3.org/1999/xlink" x="0px" y="0px"
	 viewBox="0 0 512 240.1" style="enable-background:new 0 0 512 240.1;" xml:space="preserve">
<g>
	<path d="M1.7,147.3c-4.1-37.8,1.1-73.3,17-106.4c15.4,5.1,30,10.9,45.2,14.8c41.3,10.6,81.4,6.6,120-11.8c3.7-1.7,7.4-3.3,11.2-4.6
		c9.7-3.3,17.8-9,24.1-16.2C249.5,47,279.7,71,311,95.9c-4.6,11.1-9.3,24.2-15.4,36.5c-7.5,15.3-20.4,21.7-37.6,19.3
		c-18.3-2.5-36.7-4.9-55.1-6.9c-17.3-1.9-34.7-3.1-52,0.6c-14.2,3-26,9.6-33.3,23.3C79.1,161.7,39.9,158.1,1.7,147.3z M253.7,83.2
		c4.9-0.1,8.8-4.1,8.8-8.8c0-4.6-4.2-8.7-9-8.7c-4.9,0-8.7,3.9-8.6,8.9C245,79.7,248.8,83.4,253.7,83.2z M288.6,89.9
		c-4.8-0.4-8.9,3.2-9.3,8.1c-0.4,4.9,3.2,9.1,7.9,9.5c4.7,0.4,9.1-3.4,9.5-8.1C297,94.6,293.3,90.3,288.6,89.9z M222.3,59.1
		c4.9,0.1,8.9-3.7,9.1-8.5c0.2-4.7-3.7-8.7-8.6-8.8c-4.9-0.1-8.9,3.6-9,8.4C213.7,55,217.6,59,222.3,59.1z"/>
	<path d="M124.2,169.7c7.1-12.3,18.2-16.5,30.3-18.6c21.3-3.7,42.4-1.2,63.6,1.5c15,1.9,30.1,4.3,45.2,5.7
		c13.8,1.3,25.6-4,32.9-15.7c6.2-9.9,10.5-21.1,15.4-31.8c2-4.3,3.4-8.8,5.2-13.6c2.2,1.2,3.8,2,5.3,2.9
		c29.3,18.6,61.6,28,95.9,32.2c21.4,2.6,42.6,7.6,63.7,12.1c5.5,1.2,11.1,3.6,15.6,6.8c4.1,3,7.9,7.4,10.1,12.1
		c4.7,10.2,2.7,14.2-7.4,18.7c-32.8,14.4-66.6,25.6-102.1,31.1c-40.8,6.4-81.3,4.5-121.3-5.1c-39.9-9.6-79.4-20.7-119.2-30.9
		C146.7,174.4,135.8,172.3,124.2,169.7z"/>
	<path d="M509.3,184c0.9,2.7,1.7,5.1,2.4,7.6c1.1,3.9-0.8,5.9-4.2,7.7c-27.2,14.5-56.5,22.6-86.2,30
		c-54.2,13.4-108.5,14.6-162.7,1.4c-31-7.6-61.5-17.5-92.4-25.9c-15.7-4.3-31.6-7.5-48.1-11.4c0,11.7,0,22.4,0,33.6
		c-38.4,0-76.2,0-114.4,0c-4.3-23.9-4.5-48.1-2.1-73.1c7.2,1.7,13.8,3.6,20.6,4.8c30.1,5.1,60.4,9,90.2,15.4
		c36.7,7.8,73,17.1,109.4,26.5c29.4,7.6,58.6,15.7,88.8,19.6c49.6,6.5,97.9,0.8,145-15.2c16.1-5.4,31.7-12.2,47.6-18.4
		C505,185.9,506.8,185.1,509.3,184z"/>
	<path d="M186.2,36.4C178,19.2,179.8,6.5,191.1,0c7.9,5.9,15.9,11.9,24.1,18C207.3,27.4,197.9,33.4,186.2,36.4z"/>
</g>
</svg>
