<?xml version="1.0" encoding="utf-8"?>
<!-- Generator: Adobe Illustrator 24.2.3, SVG Export Plug-In . SVG Version: 6.00 Build 0)  -->
<svg version="1.1" xmlns="http://www.w3.org/2000/svg" xmlns:xlink="http://www.w3.org/1999/xlink" x="0px" y="0px"
	 viewBox="0 0 512 512" style="enable-background:new 0 0 512 512;" xml:space="preserve">
<path d="M489.7,223.04c-2.6-1.53-5.82-1.57-8.47-0.1l-23.48,13.05L451.24,8.29c-0.13-4.62-3.91-8.3-8.53-8.29h-59.73
	c-4.62,0-8.4,3.67-8.53,8.29l-7.95,278.43l-26.18,14.51V230.4c0-4.71-3.83-8.53-8.54-8.53c-1.45,0-2.87,0.37-4.13,1.07
	l-140.93,78.28V230.4c0-4.71-3.83-8.53-8.54-8.53c-1.45,0-2.87,0.37-4.13,1.07l-153.6,85.33c-2.71,1.5-4.39,4.36-4.39,7.46v187.73
	c0,4.71,3.82,8.53,8.53,8.53h460.8c4.71,0,8.53-3.82,8.53-8.53V230.4C493.91,227.38,492.31,224.58,489.7,223.04z M391.27,17.07
	h43.14l0.49,17.07h-44.13L391.27,17.07z M390.29,51.2h45.11l5.55,194.12l-57.11,31.72L390.29,51.2z M246.44,494.93h-51.2v-42.67
	h51.2V494.93z M314.71,494.93h-51.2v-42.67h51.2V494.93z M476.84,494.93H331.77v-51.2c0-4.71-3.82-8.53-8.53-8.53H186.71
	c-4.71,0-8.53,3.82-8.53,8.53v51.2H33.11V320.76l136.53-75.85v70.83c0,4.71,3.83,8.53,8.54,8.53c1.45,0,2.87-0.37,4.13-1.07
	l140.93-78.28v70.83c0,4.71,3.83,8.53,8.54,8.53c1.45,0,2.87-0.37,4.13-1.07l80.48-44.71l37.41-20.78l23.04-12.8V494.93z"/>
<path d="M135.51,341.33H67.24c-4.71,0-8.53,3.82-8.53,8.53V384c0,4.71,3.82,8.53,8.53,8.53h68.27c4.71,0,8.53-3.82,8.53-8.53v-34.13
	C144.04,345.15,140.22,341.33,135.51,341.33z M126.97,375.47h-51.2V358.4h51.2V375.47z"/>
<path d="M289.11,341.33h-68.27c-4.71,0-8.53,3.82-8.53,8.53V384c0,4.71,3.82,8.53,8.53,8.53h68.27c4.71,0,8.53-3.82,8.53-8.53
	v-34.13C297.64,345.15,293.82,341.33,289.11,341.33z M280.57,375.47h-51.2V358.4h51.2V375.47z"/>
<path d="M442.71,341.33h-68.27c-4.71,0-8.53,3.82-8.53,8.53V384c0,4.71,3.82,8.53,8.53,8.53h68.27c4.71,0,8.53-3.82,8.53-8.53
	v-34.13C451.24,345.15,447.42,341.33,442.71,341.33z M434.17,375.47h-51.2V358.4h51.2V375.47z"/>
</svg>
